<svg id="visual" viewBox="0 0 960 540" width="960" height="540" xmlns="http://www.w3.org/2000/svg" xmlns:xlink="http://www.w3.org/1999/xlink" version="1.1"><rect x="0" y="0" width="960" height="540" fill="#FFFFFF"></rect><path d="M0 320L40 289C80 258 160 196 240 209C320 222 400 310 480 358.8C560 407.7 640 417.3 720 402C800 386.7 880 346.3 920 326.2L960 306L960 0L920 0C880 0 800 0 720 0C640 0 560 0 480 0C400 0 320 0 240 0C160 0 80 0 40 0L0 0Z" fill="#60A5FA" stroke-linecap="round" stroke-linejoin="miter"></path></svg>