<svg id="visual" viewBox="0 0 1920 1080" width="1920" height="1080" xmlns="http://www.w3.org/2000/svg" xmlns:xlink="http://www.w3.org/1999/xlink" version="1.1"><rect x="0" y="0" width="1920" height="1080" fill="#FFFFFF"></rect><path d="M0 641L80 579.2C160 517.3 320 393.7 480 419.7C640 445.7 800 621.3 960 718.7C1120 816 1280 835 1440 804.5C1600 774 1760 694 1840 654L1920 614L1920 0L1840 0C1760 0 1600 0 1440 0C1280 0 1120 0 960 0C800 0 640 0 480 0C320 0 160 0 80 0L0 0Z" fill="#60A5FA" stroke-linecap="round" stroke-linejoin="miter"></path></svg>